<svg width="24" height="24" viewBox="0 0 24 24" fill="none" xmlns="http://www.w3.org/2000/svg">
<g filter="url(#filter0_d_1071_174)">
<circle cx="12" cy="10" r="8" fill="white"/>
<path d="M10.82 11.82L8.86 9.86C8.74 9.74 8.59332 9.68 8.42 9.68C8.24668 9.68 8.09332 9.74668 7.96 9.88C7.84 10 7.78 10.1467 7.78 10.32C7.78 10.4933 7.84 10.64 7.96 10.76L10.4 13.22C10.52 13.34 10.66 13.4 10.82 13.4C10.98 13.4 11.12 13.34 11.24 13.22L16.02 8.44C16.1533 8.30668 16.22 8.15332 16.22 7.98C16.22 7.80668 16.1533 7.65332 16.02 7.52C15.8867 7.4 15.73 7.34332 15.55 7.35C15.37 7.35668 15.22 7.42 15.1 7.54L10.82 11.82ZM12 18C10.9067 18 9.87332 17.79 8.9 17.37C7.92668 16.95 7.07668 16.3767 6.35 15.65C5.62333 14.9233 5.05 14.0733 4.63 13.1C4.21 12.1267 4 11.0933 4 10C4 8.89332 4.21 7.85332 4.63 6.88C5.05 5.90668 5.62333 5.06 6.35 4.34C7.07668 3.62 7.92668 3.05 8.9 2.63C9.87332 2.21 10.9067 2 12 2C13.1067 2 14.1467 2.21 15.12 2.63C16.0933 3.05 16.94 3.62 17.66 4.34C18.38 5.06 18.95 5.90668 19.37 6.88C19.79 7.85332 20 8.89332 20 10C20 11.0933 19.79 12.1267 19.37 13.1C18.95 14.0733 18.38 14.9233 17.66 15.65C16.94 16.3767 16.0933 16.95 15.12 17.37C14.1467 17.79 13.1067 18 12 18Z" fill="#3B925F"/>
</g>
<defs>
<filter id="filter0_d_1071_174" x="0" y="0" width="24" height="24" filterUnits="userSpaceOnUse" color-interpolation-filters="sRGB">
<feFlood flood-opacity="0" result="BackgroundImageFix"/>
<feColorMatrix in="SourceAlpha" type="matrix" values="0 0 0 0 0 0 0 0 0 0 0 0 0 0 0 0 0 0 127 0" result="hardAlpha"/>
<feOffset dy="2"/>
<feGaussianBlur stdDeviation="2"/>
<feComposite in2="hardAlpha" operator="out"/>
<feColorMatrix type="matrix" values="0 0 0 0 0.0862745 0 0 0 0 0.639216 0 0 0 0 0.290196 0 0 0 0.2 0"/>
<feBlend mode="normal" in2="BackgroundImageFix" result="effect1_dropShadow_1071_174"/>
<feBlend mode="normal" in="SourceGraphic" in2="effect1_dropShadow_1071_174" result="shape"/>
</filter>
</defs>
</svg>
